<svg xmlns="http://www.w3.org/2000/svg" xmlns:xlink="http://www.w3.org/1999/xlink" width="500" zoomAndPan="magnify" viewBox="0 0 375 374.999991" height="500" preserveAspectRatio="xMidYMid meet" version="1.0"><defs><g/><clipPath id="id1"><path d="M 0 155 L 269 155 L 269 267.179688 L 0 267.179688 Z M 0 155 " clip-rule="nonzero"/></clipPath><clipPath id="id2"><path d="M 58 148.816406 L 88 148.816406 L 88 178 L 58 178 Z M 58 148.816406 " clip-rule="nonzero"/></clipPath><clipPath id="id3"><path d="M 22 68 L 126 68 L 126 197.734375 L 22 197.734375 Z M 22 68 " clip-rule="nonzero"/></clipPath></defs><g clip-path="url(#id1)"><path fill="#f3efb4" d="M 31.476562 155.265625 L 216.296875 155.265625 L 268.75 267.214844 L 0.269531 267.214844 L 31.476562 155.265625 " fill-opacity="1" fill-rule="nonzero"/></g><path fill="#e2d471" d="M 36.855469 160.109375 L 213.40625 160.109375 L 256.914062 256.992188 L 11.515625 256.992188 L 36.855469 160.109375 " fill-opacity="1" fill-rule="nonzero"/><path fill="#d88518" d="M 12.632812 252.71875 L 188.851562 160.109375 L 214.675781 160.109375 L 220.800781 176.578125 L 52.730469 256.992188 L 11.515625 256.992188 L 12.632812 252.71875 " fill-opacity="1" fill-rule="nonzero"/><path fill="#968874" d="M 124.734375 193.804688 L 89.046875 193.804688 L 83.917969 215.257812 L 76.699219 219.050781 L 89.582031 160.109375 L 95.234375 160.109375 L 90.929688 188.355469 L 132.773438 189.582031 L 124.734375 193.804688 " fill-opacity="1" fill-rule="nonzero"/><path fill="#968874" d="M 80.09375 203.523438 L 26.289062 200.511719 L 27.546875 195.707031 L 82.050781 199.613281 L 80.09375 203.523438 " fill-opacity="1" fill-rule="nonzero"/><path fill="#968874" d="M 85.707031 177.128906 L 33.019531 174.777344 L 34.449219 169.3125 L 87.664062 173.222656 L 85.707031 177.128906 " fill-opacity="1" fill-rule="nonzero"/><path fill="#aadd69" d="M 114.871094 256.992188 L 167.597656 219.050781 L 179.4375 221.984375 L 180.511719 213.105469 L 215.753906 195.707031 L 231.144531 199.613281 L 256.914062 256.992188 L 114.871094 256.992188 " fill-opacity="1" fill-rule="nonzero"/><path fill="#ed1e24" d="M 58.824219 163.261719 L 73.054688 197.601562 L 87.664062 163.261719 Z M 58.824219 163.261719 " fill-opacity="1" fill-rule="nonzero"/><g clip-path="url(#id2)"><path fill="#ed1e24" d="M 87.664062 163.261719 C 87.664062 171.222656 81.207031 177.679688 73.246094 177.679688 C 65.28125 177.679688 58.824219 171.222656 58.824219 163.261719 C 58.824219 155.296875 65.28125 148.839844 73.246094 148.839844 C 81.207031 148.839844 87.664062 155.296875 87.664062 163.261719 " fill-opacity="1" fill-rule="nonzero"/></g><path fill="#ffffff" d="M 80.171875 163.261719 C 80.171875 167.085938 77.070312 170.1875 73.246094 170.1875 C 69.417969 170.1875 66.320312 167.085938 66.320312 163.261719 C 66.320312 159.4375 69.417969 156.335938 73.246094 156.335938 C 77.070312 156.335938 80.171875 159.4375 80.171875 163.261719 " fill-opacity="1" fill-rule="nonzero"/><g clip-path="url(#id3)"><path fill="#af7319" d="M 42.796875 78.214844 C 41.421875 79.242188 40.101562 80.335938 38.835938 81.492188 C 37.570312 82.652344 36.367188 83.871094 35.222656 85.148438 C 34.082031 86.425781 33.003906 87.757812 31.996094 89.144531 C 30.988281 90.53125 30.050781 91.960938 29.1875 93.441406 C 28.324219 94.917969 27.535156 96.4375 26.824219 97.996094 C 26.113281 99.550781 25.480469 101.140625 24.929688 102.761719 C 24.378906 104.382812 23.910156 106.027344 23.523438 107.691406 C 23.136719 109.359375 22.835938 111.042969 22.621094 112.738281 C 22.40625 114.4375 22.273438 116.140625 22.230469 117.847656 C 22.183594 119.558594 22.226562 121.265625 22.355469 122.972656 C 22.480469 124.679688 22.695312 126.375 22.992188 128.058594 C 23.292969 129.742188 23.671875 131.410156 24.140625 133.054688 C 24.605469 134.703125 25.152344 136.320312 25.78125 137.914062 C 26.410156 139.507812 27.121094 141.0625 27.90625 142.585938 C 28.691406 144.105469 29.550781 145.585938 30.488281 147.019531 C 31.421875 148.457031 32.425781 149.839844 33.503906 151.175781 L 69.085938 195.445312 C 69.359375 195.785156 69.667969 196.089844 70.011719 196.359375 C 70.351562 196.625 70.722656 196.855469 71.117188 197.042969 C 71.507812 197.230469 71.917969 197.371094 72.34375 197.46875 C 72.769531 197.5625 73.203125 197.609375 73.640625 197.609375 C 74.074219 197.609375 74.507812 197.5625 74.933594 197.46875 C 75.359375 197.371094 75.769531 197.230469 76.164062 197.042969 C 76.558594 196.855469 76.925781 196.625 77.269531 196.359375 C 77.613281 196.089844 77.921875 195.785156 78.195312 195.445312 L 113.917969 151.269531 C 114.992188 149.933594 115.996094 148.546875 116.929688 147.113281 C 117.867188 145.675781 118.726562 144.199219 119.511719 142.675781 C 120.296875 141.15625 121.007812 139.597656 121.636719 138.007812 C 122.265625 136.414062 122.8125 134.796875 123.277344 133.148438 C 123.746094 131.503906 124.128906 129.835938 124.425781 128.152344 C 124.722656 126.46875 124.9375 124.773438 125.0625 123.066406 C 125.191406 121.359375 125.234375 119.652344 125.1875 117.941406 C 125.144531 116.230469 125.011719 114.527344 124.796875 112.832031 C 124.582031 111.132812 124.28125 109.453125 123.894531 107.785156 C 123.507812 106.117188 123.039062 104.472656 122.488281 102.855469 C 121.9375 101.234375 121.304688 99.644531 120.59375 98.085938 C 119.882812 96.53125 119.09375 95.011719 118.230469 93.53125 C 117.367188 92.054688 116.429688 90.621094 115.421875 89.238281 C 114.414062 87.851562 113.335938 86.519531 112.195312 85.242188 C 111.050781 83.960938 109.847656 82.746094 108.582031 81.585938 C 107.316406 80.429688 105.996094 79.335938 104.621094 78.308594 C 103.515625 77.480469 102.378906 76.699219 101.214844 75.960938 C 100.046875 75.226562 98.851562 74.539062 97.628906 73.894531 C 96.40625 73.253906 95.15625 72.664062 93.886719 72.125 C 92.617188 71.582031 91.324219 71.09375 90.015625 70.65625 C 88.703125 70.21875 87.378906 69.835938 86.035156 69.503906 C 84.695312 69.171875 83.339844 68.894531 81.976562 68.671875 C 80.613281 68.449219 79.242188 68.285156 77.863281 68.171875 C 76.488281 68.058594 75.105469 68 73.722656 68 C 72.34375 67.996094 70.960938 68.050781 69.582031 68.160156 C 68.207031 68.265625 66.835938 68.429688 65.46875 68.648438 C 64.105469 68.867188 62.75 69.140625 61.410156 69.46875 C 60.066406 69.792969 58.738281 70.175781 57.425781 70.609375 C 56.113281 71.042969 54.824219 71.527344 53.550781 72.0625 C 52.277344 72.601562 51.027344 73.1875 49.804688 73.824219 C 48.578125 74.460938 47.382812 75.148438 46.210938 75.878906 C 45.042969 76.613281 43.90625 77.390625 42.796875 78.214844 Z M 69.804688 146.390625 C 68.878906 146.269531 67.957031 146.105469 67.046875 145.902344 C 66.136719 145.695312 65.234375 145.449219 64.347656 145.160156 C 63.457031 144.871094 62.585938 144.542969 61.726562 144.171875 C 60.871094 143.800781 60.03125 143.394531 59.210938 142.949219 C 58.390625 142.5 57.59375 142.015625 56.820312 141.496094 C 56.046875 140.976562 55.296875 140.421875 54.574219 139.832031 C 53.851562 139.242188 53.160156 138.621094 52.492188 137.96875 C 51.828125 137.3125 51.195312 136.628906 50.59375 135.917969 C 49.992188 135.207031 49.425781 134.46875 48.894531 133.703125 C 48.363281 132.941406 47.867188 132.152344 47.410156 131.34375 C 46.949219 130.53125 46.53125 129.703125 46.148438 128.855469 C 45.765625 128.003906 45.425781 127.140625 45.125 126.261719 C 44.824219 125.378906 44.566406 124.488281 44.347656 123.582031 C 44.132812 122.679688 43.957031 121.765625 43.824219 120.847656 C 43.691406 119.925781 43.601562 119 43.554688 118.074219 C 43.511719 117.144531 43.507812 116.214844 43.546875 115.289062 C 43.589844 114.359375 43.671875 113.433594 43.800781 112.511719 C 43.925781 111.589844 44.097656 110.679688 44.308594 109.773438 C 44.519531 108.867188 44.773438 107.972656 45.070312 107.089844 C 45.363281 106.210938 45.699219 105.34375 46.078125 104.492188 C 46.453125 103.640625 46.867188 102.808594 47.324219 101.996094 C 47.777344 101.183594 48.269531 100.394531 48.796875 99.625 C 49.324219 98.859375 49.886719 98.117188 50.480469 97.402344 C 51.078125 96.6875 51.707031 96 52.367188 95.34375 C 53.03125 94.683594 53.71875 94.058594 54.4375 93.464844 C 55.160156 92.871094 55.902344 92.3125 56.675781 91.789062 C 57.445312 91.261719 58.242188 90.773438 59.058594 90.324219 C 59.875 89.871094 60.710938 89.457031 61.566406 89.082031 C 62.421875 88.710938 63.292969 88.375 64.179688 88.082031 C 65.066406 87.789062 65.964844 87.535156 66.875 87.324219 C 67.785156 87.113281 68.703125 86.945312 69.628906 86.816406 C 70.554688 86.691406 71.488281 86.609375 72.421875 86.566406 C 73.355469 86.527344 74.289062 86.53125 75.222656 86.578125 C 76.15625 86.621094 77.085938 86.710938 78.007812 86.84375 C 78.933594 86.972656 79.851562 87.148438 80.761719 87.363281 C 81.671875 87.582031 82.566406 87.839844 83.453125 88.136719 C 84.335938 88.4375 85.207031 88.777344 86.058594 89.15625 C 86.914062 89.535156 87.746094 89.953125 88.5625 90.40625 C 89.375 90.863281 90.167969 91.355469 90.933594 91.886719 C 91.703125 92.414062 92.445312 92.980469 93.160156 93.578125 C 93.878906 94.175781 94.5625 94.804688 95.222656 95.464844 C 95.878906 96.128906 96.503906 96.816406 97.09375 97.535156 C 97.6875 98.253906 98.246094 99 98.769531 99.769531 C 99.292969 100.539062 99.777344 101.332031 100.226562 102.148438 C 100.675781 102.964844 101.085938 103.796875 101.460938 104.652344 C 101.832031 105.503906 102.160156 106.375 102.453125 107.257812 C 102.742188 108.140625 102.992188 109.035156 103.199219 109.941406 C 103.40625 110.847656 103.570312 111.761719 103.691406 112.683594 C 103.839844 113.824219 103.925781 114.964844 103.941406 116.113281 C 103.960938 117.261719 103.914062 118.40625 103.800781 119.550781 C 103.6875 120.691406 103.507812 121.824219 103.261719 122.945312 C 103.019531 124.070312 102.710938 125.171875 102.339844 126.261719 C 101.96875 127.347656 101.535156 128.410156 101.042969 129.449219 C 100.550781 130.484375 99.996094 131.492188 99.386719 132.464844 C 98.777344 133.441406 98.117188 134.378906 97.398438 135.277344 C 96.679688 136.175781 95.914062 137.03125 95.097656 137.84375 C 94.28125 138.65625 93.421875 139.417969 92.515625 140.132812 C 91.613281 140.847656 90.671875 141.507812 89.691406 142.113281 C 88.710938 142.71875 87.699219 143.265625 86.65625 143.757812 C 85.613281 144.25 84.542969 144.679688 83.453125 145.050781 C 82.359375 145.417969 81.25 145.722656 80.121094 145.96875 C 78.992188 146.210938 77.855469 146.386719 76.707031 146.5 C 75.558594 146.613281 74.40625 146.660156 73.253906 146.640625 C 72.097656 146.625 70.949219 146.539062 69.804688 146.390625 Z M 69.804688 146.390625 " fill-opacity="1" fill-rule="nonzero"/></g><path fill="#af7319" d="M 75.800781 107.207031 L 73.664062 109.308594 L 71.128906 106.789062 C 70.644531 106.308594 70.117188 105.882812 69.546875 105.511719 C 68.976562 105.136719 68.375 104.824219 67.742188 104.574219 C 67.105469 104.320312 66.453125 104.136719 65.78125 104.019531 C 65.105469 103.898438 64.429688 103.847656 63.746094 103.867188 C 63.0625 103.886719 62.390625 103.972656 61.726562 104.128906 C 61.058594 104.28125 60.417969 104.503906 59.796875 104.789062 C 59.175781 105.074219 58.59375 105.417969 58.042969 105.820312 C 57.492188 106.222656 56.992188 106.679688 56.535156 107.183594 C 56.109375 107.683594 55.738281 108.21875 55.414062 108.785156 C 55.09375 109.355469 54.828125 109.949219 54.617188 110.570312 C 54.410156 111.1875 54.261719 111.824219 54.171875 112.46875 C 54.085938 113.117188 54.058594 113.769531 54.09375 114.421875 C 54.128906 115.074219 54.226562 115.714844 54.382812 116.351562 C 54.539062 116.984375 54.757812 117.597656 55.03125 118.191406 C 55.304688 118.785156 55.632812 119.347656 56.015625 119.878906 C 56.398438 120.410156 56.824219 120.902344 57.300781 121.355469 L 71.105469 135.085938 C 71.445312 135.425781 71.839844 135.6875 72.285156 135.871094 C 72.730469 136.054688 73.191406 136.148438 73.675781 136.148438 C 74.15625 136.148438 74.621094 136.054688 75.066406 135.871094 C 75.507812 135.6875 75.902344 135.425781 76.242188 135.085938 L 90.441406 120.960938 C 90.925781 120.480469 91.355469 119.953125 91.730469 119.382812 C 92.105469 118.8125 92.417969 118.210938 92.667969 117.578125 C 92.921875 116.945312 93.105469 116.292969 93.222656 115.625 C 93.34375 114.953125 93.390625 114.277344 93.371094 113.597656 C 93.347656 112.914062 93.261719 112.246094 93.101562 111.582031 C 92.941406 110.917969 92.71875 110.28125 92.429688 109.664062 C 92.140625 109.046875 91.789062 108.464844 91.382812 107.917969 C 90.972656 107.371094 90.511719 106.871094 90 106.421875 C 89.496094 106.003906 88.960938 105.640625 88.386719 105.324219 C 87.816406 105.011719 87.21875 104.753906 86.597656 104.550781 C 85.980469 104.347656 85.34375 104.203125 84.695312 104.117188 C 84.046875 104.03125 83.398438 104.007812 82.746094 104.042969 C 82.09375 104.078125 81.449219 104.175781 80.816406 104.332031 C 80.179688 104.488281 79.566406 104.699219 78.972656 104.972656 C 78.378906 105.242188 77.816406 105.566406 77.28125 105.941406 C 76.75 106.316406 76.253906 106.738281 75.800781 107.207031 Z M 75.800781 107.207031 " fill-opacity="1" fill-rule="nonzero"/><g fill="#81bb6a" fill-opacity="1"><g transform="translate(244.333699, 212.297213)"><g><path d="M 12.984375 0.3125 C 11.628906 0.3125 10.695312 -0.40625 10.1875 -1.84375 L 1.84375 -25.453125 C 1.539062 -26.304688 1.597656 -27.023438 2.015625 -27.609375 C 2.429688 -28.191406 3.128906 -28.484375 4.109375 -28.484375 C 4.828125 -28.484375 5.382812 -28.316406 5.78125 -27.984375 C 6.1875 -27.648438 6.507812 -27.125 6.75 -26.40625 L 13.140625 -7.390625 L 19.859375 -26.375 C 20.359375 -27.78125 21.207031 -28.484375 22.40625 -28.484375 C 23.050781 -28.484375 23.554688 -28.3125 23.921875 -27.96875 C 24.296875 -27.625 24.617188 -27.078125 24.890625 -26.328125 L 31.484375 -7.109375 L 38.078125 -26.40625 C 38.316406 -27.101562 38.632812 -27.625 39.03125 -27.96875 C 39.4375 -28.3125 39.984375 -28.484375 40.671875 -28.484375 C 41.523438 -28.484375 42.148438 -28.191406 42.546875 -27.609375 C 42.953125 -27.023438 43.003906 -26.304688 42.703125 -25.453125 L 34.28125 -1.796875 C 34.007812 -1.078125 33.660156 -0.546875 33.234375 -0.203125 C 32.816406 0.140625 32.242188 0.3125 31.515625 0.3125 C 30.796875 0.3125 30.222656 0.140625 29.796875 -0.203125 C 29.378906 -0.546875 29.035156 -1.09375 28.765625 -1.84375 L 22.25 -20.34375 L 15.703125 -1.796875 C 15.429688 -1.078125 15.085938 -0.546875 14.671875 -0.203125 C 14.265625 0.140625 13.703125 0.3125 12.984375 0.3125 Z M 12.984375 0.3125 "/></g></g></g><g fill="#81bb6a" fill-opacity="1"><g transform="translate(288.797128, 212.297213)"><g><path d="M 12.421875 0.3125 C 10.722656 0.3125 9.875 -0.5625 9.875 -2.3125 L 9.875 -23.890625 L 2.078125 -23.890625 C 0.609375 -23.890625 -0.125 -24.609375 -0.125 -26.046875 C -0.125 -27.460938 0.609375 -28.171875 2.078125 -28.171875 L 22.765625 -28.171875 C 24.234375 -28.171875 24.96875 -27.460938 24.96875 -26.046875 C 24.96875 -24.609375 24.234375 -23.890625 22.765625 -23.890625 L 14.984375 -23.890625 L 14.984375 -2.3125 C 14.984375 -0.5625 14.128906 0.3125 12.421875 0.3125 Z M 12.421875 0.3125 "/></g></g></g><g fill="#81bb6a" fill-opacity="1"><g transform="translate(313.605571, 212.297213)"><g><path d="M 16.625 0.40625 C 13.507812 0.40625 10.878906 -0.175781 8.734375 -1.34375 C 6.585938 -2.519531 4.953125 -4.1875 3.828125 -6.34375 C 2.710938 -8.507812 2.15625 -11.070312 2.15625 -14.03125 C 2.15625 -17.007812 2.726562 -19.582031 3.875 -21.75 C 5.019531 -23.925781 6.671875 -25.601562 8.828125 -26.78125 C 10.984375 -27.96875 13.566406 -28.5625 16.578125 -28.5625 C 18.066406 -28.5625 19.5625 -28.378906 21.0625 -28.015625 C 22.570312 -27.660156 23.992188 -27.054688 25.328125 -26.203125 C 25.910156 -25.859375 26.25 -25.398438 26.34375 -24.828125 C 26.4375 -24.253906 26.347656 -23.710938 26.078125 -23.203125 C 25.816406 -22.703125 25.421875 -22.351562 24.890625 -22.15625 C 24.359375 -21.957031 23.773438 -22.039062 23.140625 -22.40625 C 22.117188 -23 21.085938 -23.425781 20.046875 -23.6875 C 19.015625 -23.957031 17.859375 -24.09375 16.578125 -24.09375 C 13.597656 -24.09375 11.34375 -23.222656 9.8125 -21.484375 C 8.28125 -19.753906 7.515625 -17.269531 7.515625 -14.03125 C 7.515625 -10.75 8.296875 -8.253906 9.859375 -6.546875 C 11.429688 -4.847656 13.765625 -4 16.859375 -4 C 17.734375 -4 18.628906 -4.070312 19.546875 -4.21875 C 20.472656 -4.363281 21.390625 -4.582031 22.296875 -4.875 L 22.296875 -11.421875 L 17.90625 -11.421875 C 16.519531 -11.421875 15.828125 -12.0625 15.828125 -13.34375 C 15.828125 -14.59375 16.519531 -15.21875 17.90625 -15.21875 L 24.484375 -15.21875 C 25.867188 -15.21875 26.5625 -14.523438 26.5625 -13.140625 L 26.5625 -3.4375 C 26.5625 -2.207031 26.082031 -1.421875 25.125 -1.078125 C 23.957031 -0.648438 22.613281 -0.296875 21.09375 -0.015625 C 19.570312 0.265625 18.082031 0.40625 16.625 0.40625 Z M 16.625 0.40625 "/></g></g></g><g fill="#81bb6a" fill-opacity="1"><g transform="translate(343.008165, 212.297213)"><g><path d="M 15.703125 0.40625 C 12.984375 0.40625 10.601562 -0.191406 8.5625 -1.390625 C 6.53125 -2.597656 4.953125 -4.285156 3.828125 -6.453125 C 2.710938 -8.617188 2.15625 -11.171875 2.15625 -14.109375 C 2.15625 -17.054688 2.710938 -19.609375 3.828125 -21.765625 C 4.953125 -23.929688 6.523438 -25.601562 8.546875 -26.78125 C 10.578125 -27.96875 12.960938 -28.5625 15.703125 -28.5625 C 18.441406 -28.5625 20.820312 -27.96875 22.84375 -26.78125 C 24.875 -25.601562 26.445312 -23.929688 27.5625 -21.765625 C 28.6875 -19.609375 29.25 -17.066406 29.25 -14.140625 C 29.25 -11.179688 28.6875 -8.617188 27.5625 -6.453125 C 26.445312 -4.285156 24.875 -2.597656 22.84375 -1.390625 C 20.820312 -0.191406 18.441406 0.40625 15.703125 0.40625 Z M 15.703125 -4 C 18.285156 -4 20.296875 -4.890625 21.734375 -6.671875 C 23.171875 -8.453125 23.890625 -10.929688 23.890625 -14.109375 C 23.890625 -17.296875 23.175781 -19.769531 21.75 -21.53125 C 20.320312 -23.289062 18.304688 -24.171875 15.703125 -24.171875 C 13.117188 -24.171875 11.109375 -23.289062 9.671875 -21.53125 C 8.234375 -19.769531 7.515625 -17.296875 7.515625 -14.109375 C 7.515625 -10.929688 8.234375 -8.453125 9.671875 -6.671875 C 11.109375 -4.890625 13.117188 -4 15.703125 -4 Z M 15.703125 -4 "/></g></g></g><g fill="#edc4b3" fill-opacity="1"><g transform="translate(279.735543, 249.677621)"><g><path d="M 11.46875 -18.453125 C 9.238281 -18.453125 7.476562 -17.707031 6.1875 -16.21875 C 4.894531 -14.738281 4.25 -12.710938 4.25 -10.140625 C 4.25 -7.484375 4.867188 -5.429688 6.109375 -3.984375 C 7.359375 -2.535156 9.132812 -1.8125 11.4375 -1.8125 C 12.851562 -1.8125 14.46875 -2.066406 16.28125 -2.578125 L 16.28125 -0.515625 C 14.875 0.015625 13.140625 0.28125 11.078125 0.28125 C 8.085938 0.28125 5.78125 -0.625 4.15625 -2.4375 C 2.539062 -4.25 1.734375 -6.820312 1.734375 -10.15625 C 1.734375 -12.25 2.125 -14.078125 2.90625 -15.640625 C 3.6875 -17.210938 4.8125 -18.425781 6.28125 -19.28125 C 7.757812 -20.132812 9.492188 -20.5625 11.484375 -20.5625 C 13.617188 -20.5625 15.476562 -20.171875 17.0625 -19.390625 L 16.0625 -17.375 C 14.53125 -18.09375 13 -18.453125 11.46875 -18.453125 Z M 11.46875 -18.453125 "/></g></g></g><g fill="#edc4b3" fill-opacity="1"><g transform="translate(297.641104, 249.677621)"><g><path d="M 18.09375 -20.265625 L 18.09375 -7.15625 C 18.09375 -4.84375 17.394531 -3.023438 16 -1.703125 C 14.601562 -0.378906 12.6875 0.28125 10.25 0.28125 C 7.800781 0.28125 5.910156 -0.382812 4.578125 -1.71875 C 3.242188 -3.050781 2.578125 -4.878906 2.578125 -7.203125 L 2.578125 -20.265625 L 4.9375 -20.265625 L 4.9375 -7.046875 C 4.9375 -5.347656 5.394531 -4.046875 6.3125 -3.140625 C 7.238281 -2.234375 8.597656 -1.78125 10.390625 -1.78125 C 12.109375 -1.78125 13.425781 -2.234375 14.34375 -3.140625 C 15.269531 -4.054688 15.734375 -5.363281 15.734375 -7.0625 L 15.734375 -20.265625 Z M 18.09375 -20.265625 "/></g></g></g><g fill="#edc4b3" fill-opacity="1"><g transform="translate(318.304567, 249.677621)"><g><path d="M 18.09375 -20.265625 L 18.09375 -7.15625 C 18.09375 -4.84375 17.394531 -3.023438 16 -1.703125 C 14.601562 -0.378906 12.6875 0.28125 10.25 0.28125 C 7.800781 0.28125 5.910156 -0.382812 4.578125 -1.71875 C 3.242188 -3.050781 2.578125 -4.878906 2.578125 -7.203125 L 2.578125 -20.265625 L 4.9375 -20.265625 L 4.9375 -7.046875 C 4.9375 -5.347656 5.394531 -4.046875 6.3125 -3.140625 C 7.238281 -2.234375 8.597656 -1.78125 10.390625 -1.78125 C 12.109375 -1.78125 13.425781 -2.234375 14.34375 -3.140625 C 15.269531 -4.054688 15.734375 -5.363281 15.734375 -7.0625 L 15.734375 -20.265625 Z M 18.09375 -20.265625 "/></g></g></g></svg>