<svg xmlns="http://www.w3.org/2000/svg" xmlns:xlink="http://www.w3.org/1999/xlink" width="500" zoomAndPan="magnify" viewBox="0 0 375 374.999991" height="500" preserveAspectRatio="xMidYMid meet" version="1.0"><defs><g/><clipPath id="id1"><path d="M 0 154 L 266 154 L 266 265.042969 L 0 265.042969 Z M 0 154 " clip-rule="nonzero"/></clipPath><clipPath id="id2"><path d="M 58 147.929688 L 87 147.929688 L 87 177 L 58 177 Z M 58 147.929688 " clip-rule="nonzero"/></clipPath><clipPath id="id3"><path d="M 21 67 L 124 67 L 124 196.332031 L 21 196.332031 Z M 21 67 " clip-rule="nonzero"/></clipPath></defs><g clip-path="url(#id1)"><path fill="rgb(95.289612%, 93.728638%, 70.588684%)" d="M 31.144531 154.308594 L 214.015625 154.308594 L 265.914062 265.074219 L 0.269531 265.074219 L 31.144531 154.308594 " fill-opacity="1" fill-rule="nonzero"/></g><path fill="rgb(88.62915%, 83.139038%, 44.309998%)" d="M 36.46875 159.101562 L 211.152344 159.101562 L 254.199219 254.960938 L 11.394531 254.960938 L 36.46875 159.101562 " fill-opacity="1" fill-rule="nonzero"/><path fill="rgb(84.709167%, 52.159119%, 9.408569%)" d="M 12.5 250.734375 L 186.859375 159.101562 L 212.410156 159.101562 L 218.46875 175.394531 L 52.171875 254.960938 L 11.394531 254.960938 L 12.5 250.734375 " fill-opacity="1" fill-rule="nonzero"/><path fill="rgb(58.81958%, 53.329468%, 45.489502%)" d="M 123.417969 192.441406 L 88.105469 192.441406 L 83.03125 213.667969 L 75.890625 217.421875 L 88.636719 159.101562 L 94.230469 159.101562 L 89.96875 187.050781 L 131.375 188.261719 L 123.417969 192.441406 " fill-opacity="1" fill-rule="nonzero"/><path fill="rgb(58.81958%, 53.329468%, 45.489502%)" d="M 79.25 202.054688 L 26.011719 199.078125 L 27.257812 194.320312 L 81.183594 198.1875 L 79.25 202.054688 " fill-opacity="1" fill-rule="nonzero"/><path fill="rgb(58.81958%, 53.329468%, 45.489502%)" d="M 84.800781 175.941406 L 32.671875 173.613281 L 34.085938 168.207031 L 86.738281 172.074219 L 84.800781 175.941406 " fill-opacity="1" fill-rule="nonzero"/><path fill="rgb(66.668701%, 86.669922%, 41.178894%)" d="M 113.660156 254.960938 L 165.828125 217.421875 L 177.542969 220.320312 L 178.605469 211.539062 L 213.476562 194.320312 L 228.703125 198.1875 L 254.199219 254.960938 L 113.660156 254.960938 " fill-opacity="1" fill-rule="nonzero"/><path fill="rgb(92.939758%, 11.759949%, 14.118958%)" d="M 58.207031 162.21875 L 72.285156 196.199219 L 86.738281 162.21875 Z M 58.207031 162.21875 " fill-opacity="1" fill-rule="nonzero"/><g clip-path="url(#id2)"><path fill="rgb(92.939758%, 11.759949%, 14.118958%)" d="M 86.738281 162.21875 C 86.738281 170.097656 80.351562 176.488281 72.472656 176.488281 C 64.59375 176.488281 58.207031 170.097656 58.207031 162.21875 C 58.207031 154.339844 64.59375 147.953125 72.472656 147.953125 C 80.351562 147.953125 86.738281 154.339844 86.738281 162.21875 " fill-opacity="1" fill-rule="nonzero"/></g><path fill="rgb(100%, 100%, 100%)" d="M 79.324219 162.21875 C 79.324219 166.003906 76.257812 169.070312 72.472656 169.070312 C 68.6875 169.070312 65.621094 166.003906 65.621094 162.21875 C 65.621094 158.4375 68.6875 155.367188 72.472656 155.367188 C 76.257812 155.367188 79.324219 158.4375 79.324219 162.21875 " fill-opacity="1" fill-rule="nonzero"/><g clip-path="url(#id3)"><path fill="rgb(68.629456%, 45.098877%, 9.799194%)" d="M 42.347656 78.074219 C 40.984375 79.089844 39.679688 80.167969 38.425781 81.316406 C 37.175781 82.460938 35.984375 83.667969 34.851562 84.929688 C 33.722656 86.195312 32.65625 87.515625 31.660156 88.882812 C 30.660156 90.253906 29.734375 91.671875 28.878906 93.136719 C 28.023438 94.597656 27.246094 96.101562 26.539062 97.640625 C 25.835938 99.183594 25.210938 100.753906 24.667969 102.359375 C 24.121094 103.960938 23.65625 105.589844 23.277344 107.238281 C 22.894531 108.886719 22.597656 110.550781 22.382812 112.230469 C 22.167969 113.910156 22.039062 115.59375 21.996094 117.285156 C 21.949219 118.980469 21.992188 120.667969 22.117188 122.355469 C 22.246094 124.042969 22.453125 125.722656 22.75 127.390625 C 23.046875 129.054688 23.421875 130.703125 23.882812 132.332031 C 24.347656 133.960938 24.886719 135.566406 25.511719 137.140625 C 26.132812 138.714844 26.832031 140.253906 27.609375 141.761719 C 28.390625 143.265625 29.242188 144.730469 30.164062 146.148438 C 31.089844 147.570312 32.085938 148.941406 33.148438 150.261719 L 68.355469 194.066406 C 68.625 194.398438 68.933594 194.699219 69.269531 194.964844 C 69.609375 195.234375 69.976562 195.457031 70.363281 195.644531 C 70.753906 195.828125 71.160156 195.96875 71.582031 196.066406 C 72.003906 196.160156 72.429688 196.207031 72.863281 196.207031 C 73.292969 196.207031 73.722656 196.160156 74.140625 196.066406 C 74.5625 195.96875 74.96875 195.828125 75.359375 195.644531 C 75.75 195.457031 76.113281 195.234375 76.453125 194.964844 C 76.792969 194.699219 77.097656 194.398438 77.371094 194.066406 L 112.714844 150.355469 C 113.777344 149.03125 114.769531 147.660156 115.695312 146.242188 C 116.621094 144.820312 117.472656 143.359375 118.25 141.851562 C 119.027344 140.347656 119.730469 138.804688 120.351562 137.230469 C 120.972656 135.65625 121.515625 134.054688 121.976562 132.425781 C 122.4375 130.796875 122.816406 129.148438 123.113281 127.480469 C 123.40625 125.8125 123.617188 124.136719 123.742188 122.449219 C 123.871094 120.761719 123.910156 119.070312 123.867188 117.378906 C 123.824219 115.6875 123.695312 114 123.480469 112.320312 C 123.265625 110.644531 122.96875 108.976562 122.585938 107.328125 C 122.203125 105.679688 121.742188 104.054688 121.195312 102.449219 C 120.648438 100.847656 120.027344 99.273438 119.320312 97.734375 C 118.617188 96.191406 117.839844 94.691406 116.984375 93.226562 C 116.128906 91.765625 115.199219 90.347656 114.203125 88.976562 C 113.207031 87.605469 112.140625 86.289062 111.011719 85.023438 C 109.878906 83.757812 108.6875 82.550781 107.433594 81.40625 C 106.183594 80.261719 104.875 79.179688 103.515625 78.164062 C 102.421875 77.34375 101.300781 76.570312 100.144531 75.84375 C 98.988281 75.113281 97.808594 74.433594 96.597656 73.796875 C 95.386719 73.164062 94.152344 72.578125 92.894531 72.042969 C 91.636719 71.507812 90.359375 71.023438 89.0625 70.59375 C 87.765625 70.160156 86.457031 69.78125 85.128906 69.453125 C 83.800781 69.125 82.460938 68.851562 81.113281 68.628906 C 79.761719 68.410156 78.40625 68.246094 77.042969 68.132812 C 75.679688 68.019531 74.3125 67.964844 72.945312 67.960938 C 71.578125 67.960938 70.214844 68.011719 68.847656 68.121094 C 67.484375 68.226562 66.128906 68.390625 64.777344 68.605469 C 63.429688 68.820312 62.089844 69.09375 60.761719 69.414062 C 59.433594 69.738281 58.117188 70.117188 56.820312 70.542969 C 55.523438 70.972656 54.242188 71.453125 52.984375 71.984375 C 51.726562 72.515625 50.488281 73.097656 49.277344 73.726562 C 48.066406 74.359375 46.882812 75.035156 45.722656 75.761719 C 44.566406 76.488281 43.441406 77.257812 42.347656 78.074219 Z M 69.066406 145.527344 C 68.152344 145.40625 67.242188 145.246094 66.339844 145.042969 C 65.4375 144.839844 64.546875 144.59375 63.667969 144.308594 C 62.789062 144.023438 61.925781 143.699219 61.078125 143.332031 C 60.226562 142.964844 59.398438 142.5625 58.585938 142.121094 C 57.777344 141.679688 56.988281 141.199219 56.222656 140.683594 C 55.453125 140.167969 54.714844 139.621094 54 139.039062 C 53.285156 138.453125 52.597656 137.839844 51.9375 137.191406 C 51.28125 136.546875 50.65625 135.871094 50.0625 135.164062 C 49.464844 134.460938 48.90625 133.730469 48.378906 132.972656 C 47.851562 132.21875 47.363281 131.4375 46.910156 130.636719 C 46.453125 129.835938 46.039062 129.015625 45.660156 128.175781 C 45.285156 127.335938 44.945312 126.480469 44.648438 125.609375 C 44.351562 124.738281 44.09375 123.855469 43.878906 122.960938 C 43.664062 122.066406 43.492188 121.164062 43.359375 120.253906 C 43.230469 119.34375 43.140625 118.425781 43.097656 117.507812 C 43.050781 116.589844 43.046875 115.671875 43.089844 114.75 C 43.128906 113.832031 43.210938 112.917969 43.335938 112.007812 C 43.460938 111.09375 43.628906 110.191406 43.839844 109.296875 C 44.050781 108.398438 44.300781 107.515625 44.59375 106.640625 C 44.886719 105.769531 45.21875 104.914062 45.589844 104.070312 C 45.964844 103.226562 46.375 102.40625 46.824219 101.601562 C 47.273438 100.796875 47.757812 100.015625 48.28125 99.257812 C 48.800781 98.496094 49.359375 97.761719 49.949219 97.054688 C 50.539062 96.347656 51.164062 95.667969 51.816406 95.015625 C 52.46875 94.367188 53.152344 93.75 53.863281 93.160156 C 54.578125 92.574219 55.3125 92.019531 56.078125 91.5 C 56.839844 90.980469 57.625 90.496094 58.433594 90.050781 C 59.242188 89.605469 60.070312 89.195312 60.917969 88.824219 C 61.765625 88.453125 62.625 88.125 63.503906 87.832031 C 64.378906 87.542969 65.269531 87.292969 66.171875 87.082031 C 67.070312 86.875 67.980469 86.707031 68.894531 86.582031 C 69.8125 86.457031 70.730469 86.375 71.65625 86.335938 C 72.578125 86.296875 73.503906 86.296875 74.425781 86.34375 C 75.351562 86.390625 76.269531 86.476562 77.1875 86.605469 C 78.101562 86.738281 79.007812 86.910156 79.910156 87.125 C 80.808594 87.335938 81.695312 87.59375 82.570312 87.886719 C 83.445312 88.183594 84.308594 88.519531 85.152344 88.894531 C 85.996094 89.269531 86.820312 89.683594 87.625 90.136719 C 88.433594 90.585938 89.214844 91.074219 89.976562 91.597656 C 90.734375 92.121094 91.46875 92.679688 92.179688 93.269531 C 92.886719 93.863281 93.566406 94.484375 94.214844 95.140625 C 94.867188 95.792969 95.484375 96.476562 96.070312 97.1875 C 96.65625 97.898438 97.210938 98.636719 97.726562 99.398438 C 98.246094 100.160156 98.726562 100.945312 99.171875 101.753906 C 99.613281 102.558594 100.019531 103.382812 100.386719 104.230469 C 100.753906 105.074219 101.082031 105.933594 101.371094 106.804688 C 101.65625 107.679688 101.902344 108.566406 102.109375 109.464844 C 102.3125 110.359375 102.476562 111.265625 102.59375 112.175781 C 102.742188 113.304688 102.828125 114.433594 102.84375 115.570312 C 102.863281 116.707031 102.816406 117.839844 102.703125 118.96875 C 102.59375 120.101562 102.414062 121.21875 102.171875 122.332031 C 101.933594 123.441406 101.628906 124.535156 101.261719 125.609375 C 100.894531 126.683594 100.464844 127.734375 99.976562 128.761719 C 99.488281 129.789062 98.941406 130.785156 98.339844 131.75 C 97.734375 132.714844 97.078125 133.640625 96.371094 134.53125 C 95.660156 135.421875 94.902344 136.265625 94.09375 137.070312 C 93.285156 137.875 92.433594 138.628906 91.539062 139.335938 C 90.644531 140.039062 89.714844 140.695312 88.746094 141.292969 C 87.773438 141.894531 86.773438 142.4375 85.742188 142.921875 C 84.710938 143.410156 83.652344 143.835938 82.570312 144.199219 C 81.488281 144.566406 80.390625 144.867188 79.273438 145.109375 C 78.160156 145.347656 77.03125 145.523438 75.894531 145.636719 C 74.761719 145.746094 73.621094 145.792969 72.480469 145.777344 C 71.335938 145.757812 70.199219 145.675781 69.066406 145.527344 Z M 69.066406 145.527344 " fill-opacity="1" fill-rule="nonzero"/></g><path fill="rgb(68.629456%, 45.098877%, 9.799194%)" d="M 75 106.757812 L 72.886719 108.839844 L 70.378906 106.34375 C 69.898438 105.871094 69.378906 105.449219 68.8125 105.078125 C 68.25 104.707031 67.652344 104.398438 67.023438 104.152344 C 66.398438 103.902344 65.75 103.71875 65.085938 103.601562 C 64.417969 103.484375 63.75 103.433594 63.074219 103.453125 C 62.398438 103.472656 61.730469 103.558594 61.074219 103.710938 C 60.414062 103.863281 59.78125 104.082031 59.167969 104.363281 C 58.550781 104.644531 57.972656 104.984375 57.429688 105.382812 C 56.886719 105.785156 56.390625 106.234375 55.9375 106.734375 C 55.519531 107.226562 55.148438 107.757812 54.832031 108.320312 C 54.511719 108.882812 54.25 109.472656 54.042969 110.085938 C 53.835938 110.699219 53.6875 111.324219 53.601562 111.964844 C 53.515625 112.605469 53.488281 113.25 53.523438 113.894531 C 53.558594 114.539062 53.652344 115.175781 53.808594 115.804688 C 53.964844 116.429688 54.179688 117.039062 54.449219 117.625 C 54.722656 118.214844 55.046875 118.769531 55.425781 119.296875 C 55.800781 119.824219 56.226562 120.308594 56.695312 120.753906 L 70.355469 134.34375 C 70.691406 134.679688 71.082031 134.9375 71.519531 135.117188 C 71.960938 135.300781 72.417969 135.390625 72.898438 135.390625 C 73.375 135.390625 73.832031 135.300781 74.273438 135.117188 C 74.710938 134.9375 75.101562 134.679688 75.4375 134.34375 L 89.488281 120.367188 C 89.964844 119.890625 90.390625 119.367188 90.761719 118.804688 C 91.132812 118.242188 91.441406 117.644531 91.691406 117.019531 C 91.941406 116.394531 92.125 115.75 92.242188 115.085938 C 92.355469 114.421875 92.40625 113.753906 92.382812 113.078125 C 92.363281 112.40625 92.277344 111.742188 92.117188 111.085938 C 91.960938 110.429688 91.742188 109.796875 91.453125 109.1875 C 91.167969 108.578125 90.820312 108 90.417969 107.460938 C 90.011719 106.921875 89.558594 106.425781 89.050781 105.980469 C 88.554688 105.566406 88.019531 105.207031 87.457031 104.894531 C 86.890625 104.585938 86.300781 104.328125 85.683594 104.128906 C 85.070312 103.925781 84.445312 103.785156 83.800781 103.699219 C 83.160156 103.613281 82.519531 103.589844 81.871094 103.625 C 81.226562 103.660156 80.589844 103.757812 79.960938 103.910156 C 79.335938 104.066406 78.726562 104.277344 78.140625 104.546875 C 77.550781 104.8125 76.992188 105.132812 76.464844 105.503906 C 75.9375 105.875 75.449219 106.292969 75 106.757812 Z M 75 106.757812 " fill-opacity="1" fill-rule="nonzero"/><g fill="rgb(50.588989%, 73.329163%, 41.569519%)" fill-opacity="1"><g transform="translate(225.259634, 193.273274)"><g><path d="M 16.90625 0.421875 C 15.132812 0.421875 13.921875 -0.515625 13.265625 -2.390625 L 2.390625 -33.125 C 2.003906 -34.226562 2.082031 -35.160156 2.625 -35.921875 C 3.164062 -36.691406 4.078125 -37.078125 5.359375 -37.078125 C 6.296875 -37.078125 7.019531 -36.859375 7.53125 -36.421875 C 8.050781 -35.992188 8.46875 -35.3125 8.78125 -34.375 L 17.109375 -9.625 L 25.84375 -34.3125 C 26.5 -36.15625 27.609375 -37.078125 29.171875 -37.078125 C 30.003906 -37.078125 30.660156 -36.847656 31.140625 -36.390625 C 31.628906 -35.941406 32.046875 -35.234375 32.390625 -34.265625 L 40.96875 -9.25 L 49.5625 -34.375 C 49.875 -35.269531 50.285156 -35.941406 50.796875 -36.390625 C 51.316406 -36.847656 52.03125 -37.078125 52.9375 -37.078125 C 54.039062 -37.078125 54.851562 -36.691406 55.375 -35.921875 C 55.894531 -35.160156 55.96875 -34.226562 55.59375 -33.125 L 44.609375 -2.34375 C 44.265625 -1.40625 43.816406 -0.707031 43.265625 -0.25 C 42.710938 0.195312 41.96875 0.421875 41.03125 0.421875 C 40.09375 0.421875 39.34375 0.195312 38.78125 -0.25 C 38.226562 -0.707031 37.78125 -1.421875 37.4375 -2.390625 L 28.96875 -26.46875 L 20.4375 -2.34375 C 20.09375 -1.40625 19.648438 -0.707031 19.109375 -0.25 C 18.566406 0.195312 17.832031 0.421875 16.90625 0.421875 Z M 16.90625 0.421875 "/></g></g></g><g fill="rgb(50.588989%, 73.329163%, 41.569519%)" fill-opacity="1"><g transform="translate(283.131236, 193.273274)"><g><path d="M 7.328125 0.421875 C 5.109375 0.421875 4 -0.722656 4 -3.015625 L 4 -33.640625 C 4 -35.929688 5.109375 -37.078125 7.328125 -37.078125 C 9.546875 -37.078125 10.65625 -35.929688 10.65625 -33.640625 L 10.65625 -3.015625 C 10.65625 -0.722656 9.546875 0.421875 7.328125 0.421875 Z M 7.328125 0.421875 "/></g></g></g><g fill="rgb(50.588989%, 73.329163%, 41.569519%)" fill-opacity="1"><g transform="translate(297.794126, 193.273274)"><g><path d="M 21.625 0.515625 C 17.570312 0.515625 14.148438 -0.242188 11.359375 -1.765625 C 8.566406 -3.296875 6.441406 -5.460938 4.984375 -8.265625 C 3.535156 -11.078125 2.8125 -14.40625 2.8125 -18.25 C 2.8125 -22.132812 3.554688 -25.488281 5.046875 -28.3125 C 6.535156 -31.132812 8.679688 -33.316406 11.484375 -34.859375 C 14.296875 -36.410156 17.660156 -37.1875 21.578125 -37.1875 C 23.515625 -37.1875 25.460938 -36.953125 27.421875 -36.484375 C 29.390625 -36.015625 31.238281 -35.222656 32.96875 -34.109375 C 33.726562 -33.660156 34.164062 -33.0625 34.28125 -32.3125 C 34.40625 -31.570312 34.296875 -30.867188 33.953125 -30.203125 C 33.609375 -29.546875 33.085938 -29.085938 32.390625 -28.828125 C 31.703125 -28.566406 30.941406 -28.679688 30.109375 -29.171875 C 28.785156 -29.929688 27.445312 -30.484375 26.09375 -30.828125 C 24.75 -31.179688 23.242188 -31.359375 21.578125 -31.359375 C 17.691406 -31.359375 14.753906 -30.226562 12.765625 -27.96875 C 10.773438 -25.71875 9.78125 -22.476562 9.78125 -18.25 C 9.78125 -13.988281 10.800781 -10.75 12.84375 -8.53125 C 14.882812 -6.3125 17.914062 -5.203125 21.9375 -5.203125 C 23.082031 -5.203125 24.253906 -5.296875 25.453125 -5.484375 C 26.648438 -5.671875 27.835938 -5.957031 29.015625 -6.34375 L 29.015625 -14.875 L 23.296875 -14.875 C 21.492188 -14.875 20.59375 -15.707031 20.59375 -17.375 C 20.59375 -19 21.492188 -19.8125 23.296875 -19.8125 L 31.875 -19.8125 C 33.675781 -19.8125 34.578125 -18.910156 34.578125 -17.109375 L 34.578125 -4.46875 C 34.578125 -2.875 33.953125 -1.851562 32.703125 -1.40625 C 31.179688 -0.851562 29.429688 -0.394531 27.453125 -0.03125 C 25.472656 0.332031 23.53125 0.515625 21.625 0.515625 Z M 21.625 0.515625 "/></g></g></g><g fill="rgb(50.588989%, 73.329163%, 41.569519%)" fill-opacity="1"><g transform="translate(336.063224, 193.273274)"><g><path d="M 20.4375 0.515625 C 16.894531 0.515625 13.796875 -0.257812 11.140625 -1.8125 C 8.492188 -3.375 6.441406 -5.566406 4.984375 -8.390625 C 3.535156 -11.222656 2.8125 -14.546875 2.8125 -18.359375 C 2.8125 -22.203125 3.535156 -25.523438 4.984375 -28.328125 C 6.441406 -31.140625 8.488281 -33.316406 11.125 -34.859375 C 13.757812 -36.410156 16.863281 -37.1875 20.4375 -37.1875 C 24.007812 -37.1875 27.113281 -36.410156 29.75 -34.859375 C 32.382812 -33.316406 34.425781 -31.140625 35.875 -28.328125 C 37.332031 -25.523438 38.0625 -22.21875 38.0625 -18.40625 C 38.0625 -14.5625 37.332031 -11.222656 35.875 -8.390625 C 34.425781 -5.566406 32.382812 -3.375 29.75 -1.8125 C 27.113281 -0.257812 24.007812 0.515625 20.4375 0.515625 Z M 20.4375 -5.203125 C 23.800781 -5.203125 26.414062 -6.363281 28.28125 -8.6875 C 30.15625 -11.007812 31.09375 -14.234375 31.09375 -18.359375 C 31.09375 -22.515625 30.164062 -25.734375 28.3125 -28.015625 C 26.457031 -30.304688 23.832031 -31.453125 20.4375 -31.453125 C 17.070312 -31.453125 14.453125 -30.304688 12.578125 -28.015625 C 10.710938 -25.734375 9.78125 -22.515625 9.78125 -18.359375 C 9.78125 -14.234375 10.710938 -11.007812 12.578125 -8.6875 C 14.453125 -6.363281 17.070312 -5.203125 20.4375 -5.203125 Z M 20.4375 -5.203125 "/></g></g></g><g fill="rgb(92.939758%, 76.858521%, 70.199585%)" fill-opacity="1"><g transform="translate(280.778515, 249.027639)"><g><path d="M 11.0625 -17.796875 C 8.914062 -17.796875 7.21875 -17.082031 5.96875 -15.65625 C 4.726562 -14.226562 4.109375 -12.269531 4.109375 -9.78125 C 4.109375 -7.21875 4.707031 -5.238281 5.90625 -3.84375 C 7.101562 -2.445312 8.8125 -1.75 11.03125 -1.75 C 12.394531 -1.75 13.953125 -1.992188 15.703125 -2.484375 L 15.703125 -0.5 C 14.347656 0.0078125 12.675781 0.265625 10.6875 0.265625 C 7.800781 0.265625 5.578125 -0.601562 4.015625 -2.34375 C 2.453125 -4.09375 1.671875 -6.578125 1.671875 -9.796875 C 1.671875 -11.816406 2.046875 -13.582031 2.796875 -15.09375 C 3.554688 -16.613281 4.644531 -17.78125 6.0625 -18.59375 C 7.488281 -19.414062 9.164062 -19.828125 11.09375 -19.828125 C 13.132812 -19.828125 14.925781 -19.453125 16.46875 -18.703125 L 15.5 -16.765625 C 14.019531 -17.453125 12.539062 -17.796875 11.0625 -17.796875 Z M 11.0625 -17.796875 "/></g></g></g><g fill="rgb(92.939758%, 76.858521%, 70.199585%)" fill-opacity="1"><g transform="translate(298.055682, 249.027639)"><g><path d="M 17.453125 -19.546875 L 17.453125 -6.90625 C 17.453125 -4.675781 16.78125 -2.921875 15.4375 -1.640625 C 14.09375 -0.367188 12.242188 0.265625 9.890625 0.265625 C 7.535156 0.265625 5.710938 -0.375 4.421875 -1.65625 C 3.128906 -2.9375 2.484375 -4.703125 2.484375 -6.953125 L 2.484375 -19.546875 L 4.765625 -19.546875 L 4.765625 -6.796875 C 4.765625 -5.160156 5.207031 -3.90625 6.09375 -3.03125 C 6.988281 -2.15625 8.300781 -1.71875 10.03125 -1.71875 C 11.675781 -1.71875 12.945312 -2.15625 13.84375 -3.03125 C 14.738281 -3.914062 15.1875 -5.179688 15.1875 -6.828125 L 15.1875 -19.546875 Z M 17.453125 -19.546875 "/></g></g></g><g fill="rgb(92.939758%, 76.858521%, 70.199585%)" fill-opacity="1"><g transform="translate(317.993966, 249.027639)"><g><path d="M 17.453125 -19.546875 L 17.453125 -6.90625 C 17.453125 -4.675781 16.78125 -2.921875 15.4375 -1.640625 C 14.09375 -0.367188 12.242188 0.265625 9.890625 0.265625 C 7.535156 0.265625 5.710938 -0.375 4.421875 -1.65625 C 3.128906 -2.9375 2.484375 -4.703125 2.484375 -6.953125 L 2.484375 -19.546875 L 4.765625 -19.546875 L 4.765625 -6.796875 C 4.765625 -5.160156 5.207031 -3.90625 6.09375 -3.03125 C 6.988281 -2.15625 8.300781 -1.71875 10.03125 -1.71875 C 11.675781 -1.71875 12.945312 -2.15625 13.84375 -3.03125 C 14.738281 -3.914062 15.1875 -5.179688 15.1875 -6.828125 L 15.1875 -19.546875 Z M 17.453125 -19.546875 "/></g></g></g></svg>